<svg viewBox="0 0 24 24" fill="none" xmlns="http://www.w3.org/2000/svg">
<path d="M12 2C6.48 2 2 6.48C2 9.52 6.48 12 9.52C12 14.48 14.48 16 16C14.48 16 12 14.48C9.52 16 8 14.48C2 12.52 2 8C2 3.28 2.48 2.48 2 6.48C2 9.52 6.48 12 9.52C12 14.48 14.48 16 16C14.48 16 12 14.48C9.52 16 8 14.48C2 12.52 2 8C2 3.28 2.48 2.48 2 6.48C2 9.52 6.48 12 9.52C12 14.48 14.48 16 16C14.48 16 12 14.48C9.52 16 8 14.48C2 12.52 2 8ZM12 4C8.27 4 4 8.27C4 9.73 8.27 12 9.73C12 14.27 14.27 16 16C14.27 16 12 14.27C9.73 16 8 14.27C4 12.27 4 8C4 6.73 8.27 8 6.73C8 5.27 9.73 4 12 5.27C12 3.27 14.27 4 16 6.73C16 8.27 14.73 12 16 16C14.73 16 12 14.73C9.27 16 8 14.73C4 12.27 4 8Z" fill="currentColor"/>
<path d="M19 14L17 14V17H19V14ZM17 7V10H19V7H17V10V7Z" fill="currentColor"/>
<path d="M13.5 7.5C13.5 6.67 12.83 6 12 6S10.5 6.67 10.5 7.5S11.17 9 12 9S13.5 9.33 13.5 7.5ZM12 11C10.34 11 9 10.66 9 9.5C9 8.34 10.34 8 12 8S14.66 8.34 15 9.5C15 10.66 14.66 11 13 11S13.66 11.66 12 11Z" fill="currentColor"/>
</svg>
